<?xml version="1.0" encoding="utf-8"?>
<svg width="1850" height="2500" viewBox="0 0 256 346" preserveAspectRatio="xMinYMin meet" xmlns="http://www.w3.org/2000/svg">
  <path d="M 85.828 241.974 C 85.828 241.974 73.658 247.615 94.489 249.524 C 119.726 251.819 132.623 251.489 160.434 247.294 C 160.434 247.294 167.746 250.95 177.956 254.115 C 115.613 275.411 36.859 252.881 85.828 241.974 M 78.209 214.18 C 78.209 214.18 64.559 222.237 85.406 223.953 C 112.365 226.17 133.654 226.351 170.493 220.696 C 170.493 220.696 175.588 224.816 183.601 227.066 C 108.222 244.636 24.265 228.452 78.209 214.18" fill="#5382A1" style=""/>
  <path d="M 142.433 167.036 C 157.795 181.133 138.397 193.816 138.397 193.816 C 138.397 193.816 177.402 177.769 159.488 157.67 C 142.758 138.928 129.927 129.613 199.386 97.504 C 199.386 97.504 90.36 119.208 142.433 167.035" fill="#E76F00" style=""/>
  <path d="M 224.888 262.532 C 224.888 262.532 233.894 268.447 214.969 273.02 C 178.984 281.713 65.192 284.336 33.581 273.368 C 22.218 269.427 43.527 263.96 50.23 262.812 C 57.221 261.603 61.216 261.827 61.216 261.827 C 48.579 254.733 -20.466 275.762 26.145 281.784 C 153.258 298.217 257.859 274.384 224.888 262.532 M 91.679 185.384 C 91.679 185.384 33.799 196.343 71.183 200.32 C 86.967 202.006 118.434 201.625 147.744 199.667 C 171.698 198.06 195.75 194.632 195.75 194.632 C 195.75 194.632 187.304 197.515 181.194 200.841 C 122.416 213.164 8.868 207.432 41.557 194.826 C 69.203 184.177 91.68 185.384 91.68 185.384 M 195.512 231.646 C 255.264 206.899 227.637 183.116 208.354 186.319 C 203.628 187.102 201.521 187.782 201.521 187.782 C 201.521 187.782 203.275 185.592 206.626 184.643 C 244.773 173.954 274.111 216.172 194.311 232.894 C 194.311 232.895 195.237 232.236 195.512 231.646" fill="#5382A1" style=""/>
  <path d="M 159.488 45.657 C 159.488 45.657 192.58 72.042 128.104 112.614 C 76.401 145.163 116.313 163.718 128.082 184.921 C 97.902 163.216 75.754 144.107 90.613 126.328 C 112.421 100.222 172.84 87.566 159.488 45.655" fill="#E76F00" style=""/>
  <path d="M 97.551 298.707 C 154.904 301.637 242.976 297.085 245.061 275.455 C 245.061 275.455 241.052 283.656 197.662 290.166 C 148.711 297.509 88.336 296.654 52.526 291.947 C 52.527 291.947 59.857 296.782 97.552 298.707" fill="#5382A1" style=""/>
</svg>