<?xml version="1.0" encoding="utf-8"?>
<svg height="2282" viewBox="-1.19275382 .5 25.19275382 24.582" width="2500" xmlns="http://www.w3.org/2000/svg">
  <path d="M 0.355 17.437 C 0.379 17.492 0.407 17.544 0.436 17.595 C 0.449 17.624 0.468 17.655 0.485 17.683 C 0.512 17.739 0.542 17.792 0.57 17.844 L 0.734 18.125 C 0.764 18.177 0.794 18.229 0.828 18.279 C 0.886 18.379 0.954 18.477 1.014 18.577 C 1.041 18.618 1.066 18.661 1.096 18.702 C 1.211 18.883 1.316 19.035 1.428 19.181 C 1.508 19.291 1.587 19.399 1.673 19.506 C 1.701 19.547 1.733 19.586 1.762 19.627 L 1.993 19.912 C 2.021 19.944 2.05 19.984 2.08 20.018 C 2.183 20.143 2.291 20.263 2.4 20.387 C 2.4 20.389 2.403 20.392 2.405 20.395 C 2.54 20.567 2.686 20.721 2.845 20.856 L 2.849 20.861 C 2.933 20.947 3.017 21.034 3.106 21.118 L 3.211 21.223 C 3.327 21.333 3.444 21.443 3.566 21.548 C 3.568 21.548 3.569 21.551 3.571 21.553 L 3.631 21.605 C 3.738 21.699 3.845 21.794 3.955 21.88 L 4.086 21.992 C 4.175 22.064 4.267 22.132 4.358 22.204 L 4.501 22.314 C 4.598 22.388 4.701 22.461 4.801 22.534 C 4.837 22.56 4.874 22.586 4.912 22.611 L 4.942 22.636 L 5.236 22.831 L 5.362 22.916 C 5.516 23.016 5.668 23.11 5.821 23.203 C 5.865 23.225 5.909 23.251 5.95 23.276 C 6.063 23.342 6.18 23.408 6.294 23.47 C 6.357 23.506 6.422 23.537 6.487 23.57 C 6.565 23.614 6.647 23.658 6.731 23.702 C 6.754 23.71 6.772 23.716 6.791 23.727 L 6.795 23.724 C 6.83 23.739 6.862 23.757 6.896 23.773 C 7.022 23.837 7.152 23.898 7.288 23.958 C 7.314 23.967 7.341 23.978 7.368 23.994 C 7.519 24.061 7.669 24.124 7.825 24.186 C 7.861 24.197 7.899 24.215 7.935 24.228 C 8.076 24.283 8.222 24.338 8.366 24.391 L 8.419 24.409 C 8.579 24.465 8.737 24.518 8.9 24.568 C 8.938 24.579 8.976 24.592 9.016 24.602 C 9.183 24.655 9.344 24.714 9.512 24.746 C 20.263 26.728 23.387 18.21 23.387 18.21 C 20.762 21.667 16.104 22.577 11.693 21.564 C 11.53 21.525 11.367 21.473 11.201 21.423 C 10.968 21.356 10.737 21.282 10.507 21.201 L 10.607 21.231 L 10.542 21.206 C 10.4 21.158 10.263 21.103 10.123 21.049 C 10.089 21.034 10.055 21.021 10.02 21.008 L 10.008 21.006 C 9.854 20.942 9.705 20.878 9.556 20.812 C 9.524 20.801 9.497 20.786 9.464 20.773 C 9.288 20.695 9.114 20.613 8.941 20.529 L 9.085 20.593 C 9.048 20.577 9.011 20.558 8.974 20.539 C 8.876 20.493 8.778 20.438 8.681 20.388 C 8.608 20.353 8.536 20.316 8.465 20.275 L 8.486 20.286 C 8.367 20.223 8.249 20.153 8.13 20.088 C 8.094 20.064 8.053 20.042 8.013 20.019 C 7.835 19.914 7.66 19.805 7.487 19.692 L 7.553 19.734 C 7.509 19.705 7.466 19.676 7.423 19.645 L 7.43 19.648 C 7.317 19.579 7.207 19.506 7.099 19.428 C 7.063 19.405 7.031 19.379 6.994 19.354 C 6.882 19.276 6.771 19.195 6.662 19.111 L 6.687 19.13 C 6.643 19.093 6.596 19.059 6.549 19.024 C 6.456 18.95 6.363 18.881 6.271 18.804 L 6.148 18.705 C 6.016 18.597 5.887 18.488 5.76 18.376 L 5.759 18.375 L 5.396 18.039 L 5.292 17.94 C 5.206 17.852 5.118 17.766 5.03 17.68 L 4.929 17.573 C 4.82 17.465 4.714 17.353 4.611 17.238 L 4.605 17.231 L 4.587 17.216 C 4.477 17.093 4.367 16.967 4.26 16.841 C 4.232 16.808 4.205 16.773 4.176 16.737 L 3.939 16.445 C 3.831 16.308 3.727 16.17 3.625 16.03 L 3.583 15.97 C 1.136 12.592 0.251 7.931 2.209 4.107 L 0.48 6.329 C -1.744 9.56 -1.469 13.764 0.232 17.194 C 0.271 17.28 0.313 17.359 0.355 17.437 Z" fill="#1266a9" style=""/>
  <path d="M 7.845 12.782 L 7.834 12.764 L 7.824 12.752 Z" style=""/>
  <path d="M 9.015 14.177 L 9.109 14.273 C 9.229 14.389 9.351 14.503 9.476 14.617 L 9.491 14.63 C 9.617 14.743 9.758 14.861 9.904 14.977 L 9.926 14.993 C 9.961 15.018 9.992 15.047 10.026 15.071 C 10.173 15.186 10.32 15.296 10.474 15.405 L 10.49 15.415 C 10.555 15.462 10.624 15.506 10.697 15.553 C 10.726 15.572 10.76 15.597 10.791 15.617 C 10.902 15.689 11.011 15.756 11.123 15.825 C 11.141 15.833 11.156 15.843 11.173 15.849 C 11.267 15.908 11.37 15.965 11.468 16.016 C 11.503 16.037 11.536 16.053 11.572 16.073 C 11.642 16.109 11.711 16.145 11.778 16.181 L 11.811 16.197 C 11.953 16.267 12.097 16.332 12.238 16.397 C 12.274 16.411 12.304 16.423 12.335 16.438 C 12.451 16.489 12.569 16.537 12.685 16.582 C 12.738 16.601 12.787 16.622 12.836 16.637 C 12.943 16.679 13.055 16.715 13.16 16.752 L 13.307 16.799 C 13.46 16.848 13.615 16.91 13.777 16.936 C 22.079 18.325 24 11.862 24 11.862 C 22.27 14.379 18.922 15.579 15.355 14.642 C 15.177 14.597 15 14.546 14.825 14.488 L 14.885 14.505 C 14.835 14.492 14.791 14.477 14.743 14.461 C 14.634 14.422 14.522 14.386 14.416 14.345 L 14.265 14.289 C 14.148 14.241 14.029 14.196 13.915 14.146 C 13.879 14.129 13.847 14.118 13.82 14.103 C 13.673 14.036 13.526 13.97 13.382 13.899 L 13.167 13.786 L 13.042 13.721 C 12.946 13.671 12.857 13.617 12.765 13.564 C 12.741 13.553 12.719 13.539 12.697 13.524 L 12.7 13.526 C 12.589 13.456 12.474 13.388 12.367 13.316 C 12.331 13.296 12.299 13.271 12.266 13.25 L 12.048 13.106 C 11.897 13 11.75 12.887 11.6 12.776 C 11.566 12.745 11.534 12.721 11.502 12.692 C 9.933 11.445 8.696 9.74 8.109 7.81 C 7.49 5.804 7.626 3.552 8.695 1.727 L 7.382 3.607 C 5.769 5.948 5.86 9.076 7.116 11.552 C 7.345 12.01 7.577 12.395 7.834 12.763 C 8.072 13.11 8.336 13.516 8.654 13.796 C 8.767 13.926 8.888 14.05 9.015 14.177 Z" fill="#1266a9" style=""/>
  <path d="M 1.433 19.188 L 1.429 19.181 L 1.422 19.172 Z M 5.785 18.397 L 5.795 18.404 L 5.797 18.408 Z" style=""/>
  <path d="M 13.185 1.571 C 12.234 2.982 12.143 4.735 12.798 6.29 C 13.494 7.944 14.916 9.241 16.574 9.856 C 16.642 9.883 16.708 9.906 16.778 9.93 L 16.87 9.959 C 16.966 9.99 17.064 10.026 17.163 10.049 C 21.748 10.943 22.989 7.668 23.323 7.187 C 22.231 8.771 20.401 9.151 18.155 8.6 C 17.96 8.552 17.768 8.491 17.58 8.419 L 17.614 8.431 C 17.38 8.349 17.151 8.252 16.928 8.144 L 16.967 8.163 C 16.538 7.949 16.17 7.72 15.828 7.456 C 13.821 5.914 12.58 2.978 13.89 0.586 Z" fill="#1266a9" style=""/>
</svg>